<svg width="512" height="512" viewBox="0 0 512 512" fill="none" xmlns="http://www.w3.org/2000/svg">
  <defs>
    <linearGradient id="grad1" x1="0%" y1="0%" x2="100%" y2="100%">
      <stop offset="0%" style="stop-color:#3b82f6;stop-opacity:1" />
      <stop offset="100%" style="stop-color:#8b5cf6;stop-opacity:1" />
    </linearGradient>
  </defs>

  <!-- Background Circle -->
  <circle cx="256" cy="256" r="240" fill="url(#grad1)" opacity="0.1"/>

  <!-- Outer Ring -->
  <circle cx="256" cy="256" r="200" stroke="url(#grad1)" stroke-width="8" fill="none" opacity="0.3"/>

  <!-- Ship Wheel -->
  <g transform="translate(256, 256)">
    <!-- Center Hub -->
    <circle cx="0" cy="0" r="35" fill="url(#grad1)"/>
    <circle cx="0" cy="0" r="25" fill="white"/>

    <!-- Spokes -->
    <g>
      <!-- Top -->
      <rect x="-6" y="-120" width="12" height="85" rx="6" fill="url(#grad1)"/>
      <!-- Bottom -->
      <rect x="-6" y="35" width="12" height="85" rx="6" fill="url(#grad1)"/>
      <!-- Left -->
      <rect x="-120" y="-6" width="85" height="12" rx="6" fill="url(#grad1)"/>
      <!-- Right -->
      <rect x="35" y="-6" width="85" height="12" rx="6" fill="url(#grad1)"/>

      <!-- Diagonal Top-Right -->
      <rect x="-6" y="-6" width="12" height="90" rx="6" fill="url(#grad1)" transform="rotate(45)"/>
      <!-- Diagonal Top-Left -->
      <rect x="-6" y="-6" width="12" height="90" rx="6" fill="url(#grad1)" transform="rotate(-45)"/>
      <!-- Diagonal Bottom-Right -->
      <rect x="-6" y="-6" width="12" height="90" rx="6" fill="url(#grad1)" transform="rotate(135)"/>
      <!-- Diagonal Bottom-Left -->
      <rect x="-6" y="-6" width="12" height="90" rx="6" fill="url(#grad1)" transform="rotate(-135)"/>
    </g>

    <!-- Outer Ring Handles -->
    <circle cx="0" cy="-130" r="18" fill="url(#grad1)"/>
    <circle cx="0" cy="130" r="18" fill="url(#grad1)"/>
    <circle cx="-130" cy="0" r="18" fill="url(#grad1)"/>
    <circle cx="130" cy="0" r="18" fill="url(#grad1)"/>

    <circle cx="-92" cy="-92" r="18" fill="url(#grad1)"/>
    <circle cx="92" cy="-92" r="18" fill="url(#grad1)"/>
    <circle cx="-92" cy="92" r="18" fill="url(#grad1)"/>
    <circle cx="92" cy="92" r="18" fill="url(#grad1)"/>

    <!-- Inner decorative circles -->
    <circle cx="0" cy="-130" r="10" fill="white" opacity="0.8"/>
    <circle cx="0" cy="130" r="10" fill="white" opacity="0.8"/>
    <circle cx="-130" cy="0" r="10" fill="white" opacity="0.8"/>
    <circle cx="130" cy="0" r="10" fill="white" opacity="0.8"/>

    <circle cx="-92" cy="-92" r="10" fill="white" opacity="0.8"/>
    <circle cx="92" cy="-92" r="10" fill="white" opacity="0.8"/>
    <circle cx="-92" cy="92" r="10" fill="white" opacity="0.8"/>
    <circle cx="92" cy="92" r="10" fill="white" opacity="0.8"/>
  </g>

  <!-- Stream Wave Accents -->
  <path d="M 100 380 Q 150 360 200 380 T 300 380 T 400 380"
        stroke="url(#grad1)"
        stroke-width="4"
        fill="none"
        opacity="0.4"
        stroke-linecap="round"/>

  <path d="M 120 400 Q 170 380 220 400 T 320 400 T 420 400"
        stroke="url(#grad1)"
        stroke-width="3"
        fill="none"
        opacity="0.3"
        stroke-linecap="round"/>
</svg>
